# xmcd
#
# Track frame offsets:
# 150
# 23110
# 41378
# 54397
# 73472
# 92073
# 109026
# 130640
# 146437
# 167596
# 189751
# 201408
# 219662
# 236158
#
# Disc length: 3362 seconds
#
# Revision: 2
# Processed by: cddbd v1.5.1PL2 Copyright (c) Steve Scherf et al.
# Submitted via: Audio-CD-Archiv 4.00.530
#
DISCID=c50d200e
DTITLE=Nena feat. Nena - 20 Jahre - Das Jubiläumsalbum
DYEAR=2004
DGENRE=blues
TTITLE0=Nena - 99 Luftballons (New Version/Album Version 2)
TTITLE1=Nena mit Kim Wilde - Anyplace, Anywhere, Anytime (New Version)
TTITLE2=Nena - Nur geträumt (New Version)
TTITLE3=Nena - Leuchtturm (New Version)
TTITLE4=Nena - ? (Fragezeichen) (New Version)
TTITLE5=Nena mit Witt - Wunder geschehen (New Version) (mit Witt)
TTITLE6=Nena mit Udo Lindenberg - Jetzt bist du weg (New Version)
TTITLE7=Nena - Lass mich dein Pirat sein (New Version)
TTITLE8=Nena - Es regnet (New Version)
TTITLE9=Nena - Lichtarbeiter (New Version)
TTITLE10=Nena - Vollmond (New Version)
TTITLE11=Nena - Irgendwie, irgendwo, irgendwann (New Version)
TTITLE12=Nena - Ich häng immer noch an Dir (New Version)
TTITLE13=Nena mit Söhne Mannheims - Carpe Diem
EXTD=
EXTT0=
EXTT1=
EXTT2=
EXTT3=
EXTT4=
EXTT5=
EXTT6=
EXTT7=
EXTT8=
EXTT9=
EXTT10=
EXTT11=
EXTT12=
EXTT13=
PLAYORDER=
